# Hierarchical Translation and Rotation (.htr) file
# Generated by EVaRT
[Header]
FileType htr
DataType HTRS
FileVersion 1
NumSegments 23
NumFrames 6
DataFrameRate 120
EulerRotationOrder ZYX
CalibrationUnits mm
RotationUnits Degrees
GlobalAxisofGravity Y
BoneLengthAxis Y
ScaleFactor 1
[SegmentNames&Hierarchy]
#CHILD            PARENT
DaveRoot          GLOBAL
Spine1            DaveRoot
Spine2            Spine1
Spine3            Spine2
Spine4            Spine3
Neck              Spine4
Head              Neck
LClavicle         Spine4
LUpperArm         LClavicle
LLowerArm         LUpperArm
LHand             LLowerArm
RClavicle         Spine4
RUpperArm         RClavicle
RLowerArm         RUpperArm
RHand             RLowerArm
RUpperLeg         DaveRoot
RLowerLeg         RUpperLeg
RFoot             RLowerLeg
RToes             RFoot
LUpperLeg         DaveRoot
LLowerLeg         LUpperLeg
LFoot             LLowerLeg
LToes             LFoot
[BasePosition]
#SegmentName      Tx   Ty   Tz   Rx   Ry   Rz   BoneLength
DaveRoot          1078.678277	988.889323	-667.355416	21.100172	-35.850280	-13.563871	100.000000
Spine1            0.000000	100.000000	0.000000	-14.881963	2.292165	3.740750	100.000000
Spine2            0.000000	100.000000	0.000000	6.530342	0.668586	4.295175	100.000000
Spine3            0.000000	100.000000	0.000000	12.838786	0.191691	4.342582	100.000000
Spine4            0.000000	100.000000	0.000000	14.062130	1.171471	5.872723	100.000000
Neck              0.000000	100.000000	0.000000	7.737895	11.498691	-3.920750	80.000000
Head              0.000000	80.000000	0.000000	-47.820279	-9.378091	-2.499782	200.000000
LClavicle         0.000000	100.000000	0.000000	7.006000	0.163524	-123.648937	200.000000
LUpperArm         0.000000	200.000000	0.000000	39.957204	52.516966	-16.160711	300.000000
LLowerArm         0.000000	300.000000	0.000000	-1.806693	2.175812	1.895763	200.000000
LHand             0.000000	200.000000	0.000000	16.195035	-1.768569	8.793625	120.000000
RClavicle         0.000000	100.000000	0.000000	3.329328	-3.962094	109.315139	200.000000
RUpperArm         0.000000	200.000000	0.000000	31.467517	-27.516660	21.198784	300.000000
RLowerArm         0.000000	300.000000	0.000000	20.023297	-3.682026	-7.348670	200.000000
RHand             0.000000	200.000000	0.000000	6.266882	13.427731	10.826414	120.000000
RUpperLeg         -115.911102	-10.000000	31.058285	22.207319	27.607647	-154.283666	530.000000
RLowerLeg         0.000000	530.000000	0.000000	-15.604109	0.479387	-2.520024	460.000000
RFoot             0.000000	460.000000	0.000000	98.099007	-9.797309	28.788465	130.000000
RToes             0.000000	130.000000	0.000000	-15.148141	0.005479	-0.002881	100.000000
LUpperLeg         115.911102	-10.000000	31.058285	41.660003	-3.682702	-163.432677	530.000000
LLowerLeg         0.000000	530.000000	0.000000	-22.778950	-3.275937	3.046484	460.000000
LFoot             0.000000	460.000000	0.000000	77.647326	-23.190969	-3.622247	130.000000
LToes             0.000000	130.000000	0.000000	14.512714	-0.000000	-0.000086	100.000000
#Beginning of Data.
[DaveRoot]
#Fr	Tx	Ty	Tz	Rx	Ry	Rz	SF
1364	-2248.775829	-38.242238	28.460048	-0.840414	23.751119	2.476614	1.000000	
1365	-2247.016234	-37.162830	33.993357	-0.571658	23.716685	2.804993	1.000000	
1366	-2245.184166	-36.059512	39.513999	-0.349112	23.645785	3.090207	1.000000	
1367	-2243.275374	-34.941386	45.036558	-0.159493	23.541821	3.341729	1.000000	
1368	-2241.302246	-33.822888	50.556400	-0.005033	23.415169	3.557327	1.000000	
1369	-2239.278328	-32.714629	56.065608	0.116436	23.273737	3.738154	1.000000	
[Spine1]
#Fr	Tx	Ty	Tz	Rx	Ry	Rz	SF
1364	0.000000	0.000000	0.000000	0.367078	-0.730767	-6.073158	1.000000	
1365	0.000000	0.000000	0.000000	0.312183	-0.673432	-6.292433	1.000000	
1366	0.000000	0.000000	0.000000	0.268933	-0.609314	-6.487009	1.000000	
1367	0.000000	0.000000	0.000000	0.230210	-0.540768	-6.661423	1.000000	
1368	0.000000	0.000000	0.000000	0.196064	-0.471827	-6.816327	1.000000	
1369	0.000000	0.000000	0.000000	0.164623	-0.405368	-6.953879	1.000000	
[Spine2]
#Fr	Tx	Ty	Tz	Rx	Ry	Rz	SF
1364	0.000000	0.000000	0.000000	0.367078	-0.730767	-6.073158	1.000000	
1365	0.000000	0.000000	0.000000	0.312183	-0.673432	-6.292433	1.000000	
1366	0.000000	0.000000	0.000000	0.268933	-0.609314	-6.487009	1.000000	
1367	0.000000	0.000000	0.000000	0.230210	-0.540768	-6.661423	1.000000	
1368	0.000000	0.000000	0.000000	0.196064	-0.471827	-6.816327	1.000000	
1369	0.000000	0.000000	0.000000	0.164623	-0.405368	-6.953879	1.000000	
[Spine3]
#Fr	Tx	Ty	Tz	Rx	Ry	Rz	SF
1364	0.000000	0.000000	0.000000	0.367078	-0.730767	-6.073158	1.000000	
1365	0.000000	0.000000	0.000000	0.312183	-0.673432	-6.292433	1.000000	
1366	0.000000	0.000000	0.000000	0.268933	-0.609314	-6.487009	1.000000	
1367	0.000000	0.000000	0.000000	0.230210	-0.540768	-6.661423	1.000000	
1368	0.000000	0.000000	0.000000	0.196064	-0.471827	-6.816327	1.000000	
1369	0.000000	0.000000	0.000000	0.164623	-0.405368	-6.953879	1.000000	
[Spine4]
#Fr	Tx	Ty	Tz	Rx	Ry	Rz	SF
1364	0.000000	0.000000	0.000000	0.367078	-0.730767	-6.073158	1.000000	
1365	0.000000	0.000000	0.000000	0.312183	-0.673432	-6.292433	1.000000	
1366	0.000000	0.000000	0.000000	0.268933	-0.609314	-6.487009	1.000000	
1367	0.000000	0.000000	0.000000	0.230210	-0.540768	-6.661423	1.000000	
1368	0.000000	0.000000	0.000000	0.196064	-0.471827	-6.816327	1.000000	
1369	0.000000	0.000000	0.000000	0.164623	-0.405368	-6.953879	1.000000	
[Neck]
#Fr	Tx	Ty	Tz	Rx	Ry	Rz	SF
1364	0.000000	0.000000	0.000000	-3.521527	-12.966625	7.066828	1.000000	
1365	0.000000	0.000000	0.000000	-3.705691	-12.348543	7.067650	1.000000	
1366	0.000000	0.000000	0.000000	-3.901503	-11.751120	7.036932	1.000000	
1367	0.000000	0.000000	0.000000	-4.095657	-11.174527	6.978692	1.000000	
1368	0.000000	0.000000	0.000000	-4.285893	-10.613907	6.896027	1.000000	
1369	0.000000	0.000000	0.000000	-4.465297	-10.064668	6.796164	1.000000	
[Head]
#Fr	Tx	Ty	Tz	Rx	Ry	Rz	SF
1364	0.000000	0.000000	0.000000	-3.521527	-12.966625	7.066828	1.000000	
1365	0.000000	0.000000	0.000000	-3.705691	-12.348543	7.067650	1.000000	
1366	0.000000	0.000000	0.000000	-3.901503	-11.751120	7.036932	1.000000	
1367	0.000000	0.000000	0.000000	-4.095657	-11.174527	6.978692	1.000000	
1368	0.000000	0.000000	0.000000	-4.285893	-10.613907	6.896027	1.000000	
1369	0.000000	0.000000	0.000000	-4.465297	-10.064668	6.796164	1.000000	
[LClavicle]
#Fr	Tx	Ty	Tz	Rx	Ry	Rz	SF
1364	0.000000	0.000000	0.000000	1.385514	0.152792	13.035765	1.000000	
1365	0.000000	0.000000	0.000000	1.296302	0.141281	13.108650	1.000000	
1366	0.000000	0.000000	0.000000	1.236307	0.134324	13.127739	1.000000	
1367	0.000000	0.000000	0.000000	1.212977	0.132632	13.088359	1.000000	
1368	0.000000	0.000000	0.000000	1.216449	0.134649	13.012175	1.000000	
1369	0.000000	0.000000	0.000000	1.233801	0.138614	12.918439	1.000000	
[LUpperArm]
#Fr	Tx	Ty	Tz	Rx	Ry	Rz	SF
1364	0.000000	0.000000	0.000000	-0.796014	-20.674937	-4.792077	1.000000	
1365	0.000000	0.000000	0.000000	-1.181982	-20.971219	-4.581867	1.000000	
1366	0.000000	0.000000	0.000000	-1.599418	-21.302603	-4.330575	1.000000	
1367	0.000000	0.000000	0.000000	-2.065673	-21.654003	-4.032960	1.000000	
1368	0.000000	0.000000	0.000000	-2.548745	-22.003348	-3.710363	1.000000	
1369	0.000000	0.000000	0.000000	-3.021918	-22.339897	-3.378670	1.000000	
[LLowerArm]
#Fr	Tx	Ty	Tz	Rx	Ry	Rz	SF
1364	0.000000	0.000000	0.000000	-6.058368	0.000000	0.000000	1.000000	
1365	0.000000	0.000000	0.000000	-5.931248	0.000000	0.000000	1.000000	
1366	0.000000	0.000000	0.000000	-5.711242	-0.000000	0.000000	1.000000	
1367	0.000000	0.000000	0.000000	-5.419093	-0.000000	0.000000	1.000000	
1368	0.000000	0.000000	0.000000	-5.079473	0.000000	0.000000	1.000000	
1369	0.000000	0.000000	0.000000	-4.709956	-0.000000	0.000000	1.000000	
[LHand]
#Fr	Tx	Ty	Tz	Rx	Ry	Rz	SF
1364	0.000000	0.000000	0.000000	-6.730140	-0.000000	0.000000	1.000000	
1365	0.000000	0.000000	0.000000	-6.653764	-0.000000	0.000000	1.000000	
1366	0.000000	0.000000	0.000000	-6.591251	-0.000000	0.000000	1.000000	
1367	0.000000	0.000000	0.000000	-6.523376	-0.000000	0.000000	1.000000	
1368	0.000000	0.000000	0.000000	-6.457209	-0.000000	0.000000	1.000000	
1369	0.000000	0.000000	0.000000	-6.401272	-0.000000	0.000000	1.000000	
[RClavicle]
#Fr	Tx	Ty	Tz	Rx	Ry	Rz	SF
1364	0.000000	0.000000	0.000000	-0.347101	0.050330	6.734428	1.000000	
1365	0.000000	0.000000	0.000000	-0.193023	0.028760	6.958639	1.000000	
1366	0.000000	0.000000	0.000000	-0.053218	0.008107	7.146247	1.000000	
1367	0.000000	0.000000	0.000000	0.081051	-0.012584	7.309350	1.000000	
1368	0.000000	0.000000	0.000000	0.207255	-0.032694	7.448585	1.000000	
1369	0.000000	0.000000	0.000000	0.325977	-0.052101	7.564893	1.000000	
[RUpperArm]
#Fr	Tx	Ty	Tz	Rx	Ry	Rz	SF
1364	0.000000	0.000000	0.000000	1.196534	-5.085605	15.585602	1.000000	
1365	0.000000	0.000000	0.000000	1.226274	-5.244913	15.758046	1.000000	
1366	0.000000	0.000000	0.000000	1.276985	-5.501234	15.823403	1.000000	
1367	0.000000	0.000000	0.000000	1.328763	-5.852461	15.789448	1.000000	
1368	0.000000	0.000000	0.000000	1.389757	-6.290359	15.655977	1.000000	
1369	0.000000	0.000000	0.000000	1.462821	-6.793970	15.434255	1.000000	
[RLowerArm]
#Fr	Tx	Ty	Tz	Rx	Ry	Rz	SF
1364	0.000000	0.000000	0.000000	-3.022342	0.000000	0.000000	1.000000	
1365	0.000000	0.000000	0.000000	-3.057711	0.000000	0.000000	1.000000	
1366	0.000000	0.000000	0.000000	-3.078703	0.000000	0.000000	1.000000	
1367	0.000000	0.000000	0.000000	-3.088578	0.000000	0.000000	1.000000	
1368	0.000000	0.000000	0.000000	-3.089271	0.000000	0.000000	1.000000	
1369	0.000000	0.000000	0.000000	-3.081362	0.000000	0.000000	1.000000	
[RHand]
#Fr	Tx	Ty	Tz	Rx	Ry	Rz	SF
1364	0.000000	0.000000	0.000000	-1.870086	-15.289629	-8.535211	1.000000	
1365	0.000000	0.000000	0.000000	-1.997251	-14.931909	-8.280541	1.000000	
1366	0.000000	0.000000	0.000000	-2.139544	-14.490113	-8.027703	1.000000	
1367	0.000000	0.000000	0.000000	-2.280071	-13.990831	-7.767277	1.000000	
1368	0.000000	0.000000	0.000000	-2.418249	-13.466083	-7.494521	1.000000	
1369	0.000000	0.000000	0.000000	-2.548761	-12.958146	-7.211113	1.000000	
[RUpperLeg]
#Fr	Tx	Ty	Tz	Rx	Ry	Rz	SF
1364	0.000000	0.000000	0.000000	3.204473	-21.174864	-16.871272	1.000000	
1365	0.000000	0.000000	0.000000	3.635174	-21.941294	-17.250967	1.000000	
1366	0.000000	0.000000	0.000000	4.077484	-22.751789	-17.605086	1.000000	
1367	0.000000	0.000000	0.000000	4.530880	-23.548936	-17.940684	1.000000	
1368	0.000000	0.000000	0.000000	4.990163	-24.322894	-18.255977	1.000000	
1369	0.000000	0.000000	0.000000	5.457354	-25.072392	-18.549189	1.000000	
[RLowerLeg]
#Fr	Tx	Ty	Tz	Rx	Ry	Rz	SF
1364	0.000000	0.000000	0.000000	-5.350018	-0.000000	0.000000	1.000000	
1365	0.000000	0.000000	0.000000	-5.948367	-0.000000	0.000000	1.000000	
1366	0.000000	0.000000	0.000000	-6.704729	-0.000000	0.000000	1.000000	
1367	0.000000	0.000000	0.000000	-7.527692	-0.000000	0.000000	1.000000	
1368	0.000000	0.000000	0.000000	-8.410305	-0.000000	0.000000	1.000000	
1369	0.000000	0.000000	0.000000	-9.353060	-0.000000	0.000000	1.000000	
[RFoot]
#Fr	Tx	Ty	Tz	Rx	Ry	Rz	SF
1364	0.000000	0.000000	0.000000	-1.585178	-25.589736	-4.946888	1.000000	
1365	0.000000	0.000000	0.000000	-1.203876	-25.524530	-6.401885	1.000000	
1366	0.000000	0.000000	0.000000	-1.052507	-25.397995	-7.313677	1.000000	
1367	0.000000	0.000000	0.000000	-1.013506	-25.385931	-8.203091	1.000000	
1368	0.000000	0.000000	0.000000	-1.082350	-25.464191	-9.071514	1.000000	
1369	0.000000	0.000000	0.000000	-1.254504	-25.604072	-9.918376	1.000000	
[RToes]
#Fr	Tx	Ty	Tz	Rx	Ry	Rz	SF
1364	0.000000	0.000000	0.000000	31.121579	0.000000	0.000000	1.000000	
1365	0.000000	0.000000	0.000000	31.603614	-0.000000	-0.000000	1.000000	
1366	0.000000	0.000000	0.000000	31.834438	0.000000	0.000000	1.000000	
1367	0.000000	0.000000	0.000000	32.235803	0.000000	0.000000	1.000000	
1368	0.000000	0.000000	0.000000	32.808427	0.000000	0.000000	1.000000	
1369	0.000000	0.000000	0.000000	33.551875	0.000000	0.000000	1.000000	
[LUpperLeg]
#Fr	Tx	Ty	Tz	Rx	Ry	Rz	SF
1364	0.000000	0.000000	0.000000	-10.229843	13.060156	-13.118249	1.000000	
1365	0.000000	0.000000	0.000000	-10.408538	12.451145	-13.469719	1.000000	
1366	0.000000	0.000000	0.000000	-10.629761	11.878343	-13.790301	1.000000	
1367	0.000000	0.000000	0.000000	-10.875759	11.352408	-14.088125	1.000000	
1368	0.000000	0.000000	0.000000	-11.137000	10.883512	-14.367395	1.000000	
1369	0.000000	0.000000	0.000000	-11.405009	10.471689	-14.630729	1.000000	
[LLowerLeg]
#Fr	Tx	Ty	Tz	Rx	Ry	Rz	SF
1364	0.000000	0.000000	0.000000	19.094326	0.000000	0.000000	1.000000	
1365	0.000000	0.000000	0.000000	19.219513	0.000000	0.000000	1.000000	
1366	0.000000	0.000000	0.000000	19.355896	0.000000	0.000000	1.000000	
1367	0.000000	0.000000	0.000000	19.485031	0.000000	0.000000	1.000000	
1368	0.000000	0.000000	0.000000	19.589048	0.000000	0.000000	1.000000	
1369	0.000000	0.000000	0.000000	19.659214	0.000000	0.000000	1.000000	
[LFoot]
#Fr	Tx	Ty	Tz	Rx	Ry	Rz	SF
1364	0.000000	0.000000	0.000000	-7.004228	14.022809	4.564458	1.000000	
1365	0.000000	0.000000	0.000000	-6.581747	14.167586	4.371016	1.000000	
1366	0.000000	0.000000	0.000000	-6.189644	14.378497	4.231245	1.000000	
1367	0.000000	0.000000	0.000000	-5.823592	14.620574	4.157122	1.000000	
1368	0.000000	0.000000	0.000000	-5.475850	14.872824	4.146282	1.000000	
1369	0.000000	0.000000	0.000000	-5.137458	15.124954	4.189388	1.000000	
[LToes]
#Fr	Tx	Ty	Tz	Rx	Ry	Rz	SF
1364	0.000000	0.000000	0.000000	15.210969	0.000000	0.000000	1.000000	
1365	0.000000	0.000000	0.000000	15.122233	0.000000	0.000000	1.000000	
1366	0.000000	0.000000	0.000000	15.140755	0.000000	0.000000	1.000000	
1367	0.000000	0.000000	0.000000	15.264409	0.000000	0.000000	1.000000	
1368	0.000000	0.000000	0.000000	15.476442	0.000000	0.000000	1.000000	
1369	0.000000	0.000000	0.000000	15.739200	0.000000	0.000000	1.000000	
